HIERARCHY
ROOT ROOT
{
	OFFSET 0.000000 56.020000 -5.659234
	CHANNELS 6 Xposition Yposition Zposition Xrotation Yrotation Zrotation 
	JOINT C_spine0001_bind_JNT
	{
		OFFSET 0.000000 1.618999 0.000000
		CHANNELS 3 Xrotation Yrotation Zrotation
		JOINT C_spine0002_bind_JNT
		{
			OFFSET 0.000000 4.942001 0.000001
			CHANNELS 3 Xrotation Yrotation Zrotation
			JOINT C_spine0003_bind_JNT
			{
				OFFSET 0.000000 4.942001 -0.000000
				CHANNELS 3 Xrotation Yrotation Zrotation
				JOINT C_neck0001_bind_JNT
				{
					OFFSET 0.000000 17.026009 -0.000000
					CHANNELS 3 Xrotation Yrotation Zrotation
					JOINT C_neck0002_bind_JNT
					{
						OFFSET 0.000000 3.249985 0.000000
						CHANNELS 3 Xrotation Yrotation Zrotation
						JOINT C_head_bind_JNT
						{
							OFFSET 0.000000 5.278008 0.000000
							CHANNELS 3 Xrotation Yrotation Zrotation
							End Site
							{
								OFFSET 0.000000 0.000000 0.000000
							}
						}
					}
				}
				JOINT L_clavicle_bind_JNT
				{
					OFFSET 4.590000 12.067001 0.834000
					CHANNELS 3 Xrotation Yrotation Zrotation
					JOINT L_armUpper0001_bind_JNT
					{
						OFFSET 7.812635 0.512001 -3.452945
						CHANNELS 3 Xrotation Yrotation Zrotation
						JOINT L_armLower0001_bind_JNT
						{
							OFFSET 15.265892 -6.552116 -0.058157
							CHANNELS 3 Xrotation Yrotation Zrotation
							JOINT L_hand0001_bind_JNT
							{
								OFFSET 14.747667 -6.369995 5.049225
								CHANNELS 3 Xrotation Yrotation Zrotation
								End Site
								{
									OFFSET 0.000000 0.000000 0.000000
								}
							}
						}
					}
				}
				JOINT R_clavicle_bind_JNT
				{
					OFFSET -4.590000 12.067001 0.834000
					CHANNELS 3 Xrotation Yrotation Zrotation
					JOINT R_armUpper0001_bind_JNT
					{
						OFFSET -7.812635 0.512001 -3.452945
						CHANNELS 3 Xrotation Yrotation Zrotation
						JOINT R_armLower0001_bind_JNT
						{
							OFFSET -15.265890 -6.552124 -0.058160
							CHANNELS 3 Xrotation Yrotation Zrotation
							JOINT R_hand0001_bind_JNT
							{
								OFFSET -14.746784 -6.369629 5.048937
								CHANNELS 3 Xrotation Yrotation Zrotation
								End Site
								{
									OFFSET 0.000000 0.000000 0.000000
								}
							}
						}
					}
				}
			}
		}
	}
	JOINT C_pelvis0001_bind_JNT
	{
		OFFSET -0.000000 0.000000 0.000000
		CHANNELS 3 Xrotation Yrotation Zrotation
		JOINT L_legUpper0001_bind_JNT
		{
			OFFSET 6.599999 -6.027000 0.539000
			CHANNELS 3 Xrotation Yrotation Zrotation
			JOINT L_legLower0001_bind_JNT
			{
				OFFSET -0.140713 -19.187443 0.040261
				CHANNELS 3 Xrotation Yrotation Zrotation
				JOINT L_foot0001_bind_JNT
				{
					OFFSET -0.132215 -18.028637 -1.138370
					CHANNELS 3 Xrotation Yrotation Zrotation
					JOINT L_foot0002_bind_JNT
					{
						OFFSET 0.007014 -4.693133 9.886524
						CHANNELS 3 Xrotation Yrotation Zrotation
						End Site
						{
							OFFSET 0.000000 0.000000 0.000000
						}
					}
				}
			}
		}
		JOINT R_legUpper0001_bind_JNT
		{
			OFFSET -6.599999 -6.027000 0.539000
			CHANNELS 3 Xrotation Yrotation Zrotation
			JOINT R_legLower0001_bind_JNT
			{
				OFFSET 0.140710 -19.187164 0.040550
				CHANNELS 3 Xrotation Yrotation Zrotation
				JOINT R_foot0001_bind_JNT
				{
					OFFSET 0.132215 -18.028633 -1.138362
					CHANNELS 3 Xrotation Yrotation Zrotation
					JOINT R_foot0002_bind_JNT
					{
						OFFSET -0.007014 -4.693128 9.886505
						CHANNELS 3 Xrotation Yrotation Zrotation
						End Site
						{
							OFFSET 0.000000 0.000000 0.000000
						}
					}
				}
			}
		}
	}
}
MOTION
Frames: 10
Frame Time: 0.033333
19.385458 47.150791 110.755180 -179.985855 -31.357998 179.986206 -175.280487 4.738614 178.010529 7.586973 6.958631 0.858838 4.486504 6.502182 0.298235 -3.228296 -0.573904 1.536776 2.601804 -4.076338 -1.448902 19.668306 -2.093076 -4.541072 -0.299301 10.277798 -6.135589 -2.930117 8.331942 -61.762932 24.013334 -1.438928 8.996154 -5.198477 -29.916592 -28.181189 -2.077589 -15.882723 2.473708 -16.921640 7.869317 60.412910 18.304262 2.532846 -4.503229 -3.672094 17.813147 25.677874 -176.222839 5.218265 179.207062 -20.929722 1.839375 0.892547 0.111775 11.923720 1.393697 0.218410 -3.135425 -6.646579 -0.732735 -0.973980 0.016130 16.282179 -0.045621 5.621417 6.831485 -9.877501 1.898259 -14.269227 -2.226423 -2.083034 -4.447880 0.137745 0.063027 
20.048269 47.028320 111.928421 -179.988022 -32.447605 179.985809 -175.302032 5.809263 178.009109 7.441556 7.106013 0.576217 4.448584 6.688362 0.110068 -3.146702 -0.650868 1.680951 2.614439 -3.810633 -1.547549 19.481901 -2.127537 -4.485778 -0.188368 10.260806 -6.224986 -2.968544 8.629229 -61.511814 24.044096 -1.192367 9.039366 -5.140694 -29.991356 -28.130507 -2.003340 -15.841199 2.550670 -16.374788 7.647333 60.780006 19.281725 2.336626 -4.715332 -4.071532 18.371763 26.117191 -176.398499 6.304392 179.179886 -20.814852 1.912484 0.129979 0.039080 11.989960 1.545448 0.664841 -3.190596 -5.679655 -0.467599 -0.985355 0.277958 17.944288 0.151218 5.467731 6.316280 -9.991526 1.702726 -14.042549 -2.281235 -1.240295 -5.557817 0.153374 -0.046170 
20.815159 46.948929 113.183365 -179.994537 -33.004509 179.978378 -175.197815 6.275251 178.127655 7.319333 7.149321 0.200466 4.260717 6.786426 -0.060759 -3.111789 -0.529458 1.584400 2.809266 -3.667222 -1.401058 19.419912 -2.024190 -4.423931 -0.071650 10.438470 -6.083965 -3.021467 8.764831 -61.599869 24.287962 -0.810418 9.132660 -5.251184 -29.996817 -28.108381 -1.752751 -15.760782 2.621308 -15.773981 7.258543 61.198982 20.161377 1.873559 -4.893798 -4.378809 19.203489 26.526306 -176.354935 6.856871 179.139084 -20.466536 1.714960 -0.049141 0.742227 11.304705 1.665779 1.658600 -2.547126 -4.667654 -0.284871 -0.806423 0.295607 20.479609 0.559632 5.008954 4.823058 -9.988243 1.764380 -13.375948 -2.531724 -0.434421 -6.678662 0.294055 -0.048260 
21.617287 46.982311 114.516983 -179.994186 -33.898754 179.981216 -175.315216 7.195339 178.771622 7.177377 7.278835 -0.554591 4.186560 6.805108 -0.390083 -3.131882 -0.578801 1.510865 2.715665 -3.342690 -1.375034 19.372255 -1.864925 -4.293856 -0.037188 10.477360 -6.222685 -3.293411 9.010160 -61.388214 24.277292 -0.561621 9.086110 -5.187018 -30.165119 -28.292183 -1.801402 -15.609085 2.542923 -14.746696 6.731341 61.748779 21.148922 1.573453 -5.344842 -4.914458 19.858467 26.838213 -176.666931 7.616118 179.412430 -19.981033 1.534133 -0.626697 1.665931 10.363220 1.310024 3.071217 -2.093429 -2.916146 0.261522 -0.352906 0.120430 22.617460 0.914638 4.804873 3.535280 -10.277616 1.444214 -12.720212 -2.715795 0.440268 -8.011148 0.209628 -0.175638 
22.613056 47.085030 115.801117 -179.987762 -34.584999 179.981567 -175.259949 7.734072 179.284134 7.115326 7.295869 -1.241555 3.975112 6.875413 -0.778313 -3.228647 -0.529527 1.403673 2.835771 -2.852722 -1.267564 19.385849 -1.878897 -4.055858 0.169848 10.747821 -6.163578 -3.594685 8.778545 -61.377285 24.424812 -0.345589 9.181976 -5.257018 -30.086180 -28.244455 -1.617101 -15.429892 2.563631 -13.559078 5.894271 62.028255 21.804506 1.340212 -5.687437 -5.328653 20.747463 27.555622 -176.837708 8.167707 179.869980 -19.520121 1.455791 -1.332638 3.054265 9.374183 0.806528 4.709292 -1.384908 -1.672270 0.738287 -0.282120 -0.027729 24.185970 0.999139 3.495470 3.235250 -10.350725 1.821685 -11.319928 -3.476606 1.812764 -10.515093 0.243134 -0.371507 
23.749928 47.318256 117.171516 -179.991776 -34.932774 179.987762 -175.545700 7.984145 -179.900635 6.853263 7.273801 -2.172516 3.815582 6.885371 -1.185927 -3.369274 -0.627793 1.302757 2.895243 -2.419475 -1.262693 19.459150 -1.754827 -3.771898 0.345020 10.870111 -6.096359 -4.068179 8.578494 -61.333130 24.192738 -0.155930 9.104832 -4.820252 -30.040075 -28.191479 -1.493668 -15.328436 2.804889 -12.178176 5.216449 62.202202 22.944921 1.499011 -6.182532 -6.247872 21.054464 28.154570 -177.204010 8.333390 -179.721909 -19.116671 1.179705 -2.180006 4.615919 9.057083 0.320059 5.469991 -0.782455 -0.245763 1.202636 -0.200510 -0.420963 24.594875 0.849153 2.513159 4.900167 -10.418939 1.930382 -8.690186 -3.837733 2.685221 -15.116925 -0.036590 -0.197240 
24.988199 47.565842 118.575462 -179.987625 -35.266125 179.983871 -175.814301 8.261436 -179.409866 6.644760 7.282444 -2.852612 3.677611 6.773495 -1.513353 -3.461191 -0.654052 1.190947 2.907283 -1.876693 -1.210501 19.744692 -1.767693 -3.422945 0.149024 11.151616 -5.758076 -4.506111 8.029371 -61.635330 24.396708 0.095863 8.946059 -4.873221 -29.673584 -27.817423 -1.327317 -15.041075 2.986417 -10.832029 4.373573 62.097160 23.595613 1.421691 -6.306889 -7.085555 21.460510 29.172663 -177.256424 8.435660 -179.563934 -18.158854 0.955594 -2.837066 6.430736 8.680336 -0.187400 5.456509 -0.091623 0.673414 1.485365 -0.052313 -0.382029 23.761190 0.703449 0.956492 8.766556 -10.241452 3.064447 -4.654346 -4.187638 3.473101 -21.012392 -0.091934 -0.223215 
26.270365 47.839378 120.042793 -179.992462 -35.681950 179.983475 -176.139999 8.403211 -178.819199 6.349063 6.883557 -3.634471 3.430887 6.542088 -1.669268 -3.422117 -0.768577 1.046146 2.881483 -0.897497 -1.132181 20.224508 -1.823788 -3.133780 0.203901 11.373813 -5.520807 -4.953637 7.361279 -61.943100 24.042696 -0.006788 8.774605 -4.654303 -29.256783 -27.424170 -1.199684 -14.743728 3.046471 -9.282045 3.301391 62.048790 24.818678 1.711082 -6.669769 -7.725121 21.750736 30.096588 -177.445099 8.453705 -179.417526 -16.756304 0.247850 -3.823361 7.906023 8.741719 -0.665545 4.445537 0.574749 1.560370 1.702315 -0.076356 -0.254515 21.351919 -0.161628 -0.641149 15.103595 -9.116200 4.311904 0.457509 -4.193781 3.688305 -27.647387 -0.295271 0.296692 
27.473186 48.044655 121.536407 -179.993774 -35.936287 179.974228 -176.316071 8.405451 -178.825424 6.227874 6.554269 -3.985424 3.311682 6.208520 -1.620738 -3.483317 -0.642525 0.987097 2.890890 -0.176308 -1.149513 20.573376 -1.748140 -2.824021 0.082305 11.703164 -5.409548 -5.789637 6.461762 -62.040195 23.950426 0.110370 8.408823 -4.682483 -28.865522 -26.948738 -1.234425 -14.607723 2.918072 -7.965720 2.406749 61.890533 26.047855 1.955719 -6.804916 -8.320251 21.973310 31.228189 -177.574158 8.370250 -179.320633 -15.315518 -0.175474 -4.286944 9.282526 8.730645 -1.384993 3.319453 0.806754 2.689614 1.670597 0.030001 -0.052763 16.870119 -0.997369 -2.459769 24.133110 -7.767574 5.701513 4.376149 -4.103857 4.861180 -29.393444 -0.290495 0.032673 
28.647264 48.163910 123.051941 179.999344 -36.135918 179.978638 -176.264954 8.133177 -178.565063 6.196637 5.964027 -4.235613 3.415856 5.799086 -1.803430 -3.635174 -0.648453 1.014430 3.121454 0.820507 -1.208349 20.786533 -1.823242 -2.731520 0.290729 11.893198 -5.290267 -6.810428 5.291093 -62.156086 23.595964 -0.118661 8.118884 -4.700592 -28.399771 -26.407894 -1.307970 -14.478249 2.905289 -6.735333 1.644942 61.553646 27.047377 2.096173 -6.729132 -8.399283 22.388105 32.043892 -177.333755 8.087771 -178.867111 -13.161632 -0.133247 -5.010412 10.505715 8.361396 -1.804295 1.244232 0.811408 3.396227 1.813005 -0.015658 -0.383700 11.405436 -1.641522 -4.717672 32.989597 -6.680085 6.527857 7.484437 -4.232562 5.391562 -24.738697 0.241005 -0.004970 
